PathFileType	4	(X/Y/Z)	TVC_26_BWA6_walk_RCNL2025.trc
DataRate	CameraRate	NumFrames	NumMarkers	Units	OrigDataRate	OrigDataStartFrame	OrigNumFrames
100	100	9	27	mm	100	74	588
Frame#	Time	R_Shoulder			L_Shoulder			C7			J_Notch			R_Elbow			L_Elbow			R_Wrist			L_Wrist			R_Asis			L_Asis			R_Psis			L_Psis			Sacral			Thoracic			Sternum			R_Thigh_Lateral			R_Knee_Lateral			R_Shank_Lateral			R_Ankle_Lateral			R_Heel			R_Toe			L_Thigh_Lateral			L_Knee_Lateral			L_Shank_Lateral			L_Ankle_Lateral			L_Heel			L_Toe		
		X1	Y1	Z1	X2	Y2	Z2	X3	Y3	Z3	X4	Y4	Z4	X5	Y5	Z5	X6	Y6	Z6	X7	Y7	Z7	X8	Y8	Z8	X9	Y9	Z9	X10	Y10	Z10	X11	Y11	Z11	X12	Y12	Z12	X13	Y13	Z13	X14	Y14	Z14	X15	Y15	Z15	X16	Y16	Z16	X17	Y17	Z17	X18	Y18	Z18	X19	Y19	Z19	X20	Y20	Z20	X21	Y21	Z21	X22	Y22	Z22	X23	Y23	Z23	X24	Y24	Z24	X25	Y25	Z25	X26	Y26	Z26	X27	Y27	Z27
74	0.73000000	-415.118225	1346.275513	136.243362	-395.029083	1368.480469	-183.907928	-483.779297	1389.393555	-21.659035	-329.361328	1306.609863	-11.352086	-373.920135	1009.173279	250.025528	-407.688995	1045.246826	-302.391510	-269.299431	823.675140	279.838669	-297.485809	852.176971	-261.764229	-306.918854	959.388550	152.762955	-265.289368	959.623047	-140.525635	-510.768860	937.067139	35.726238	-480.632599	931.886292	-106.104111	-495.700729	934.476715	-35.188936	-516.120605	1104.993408	-43.339809	-256.063904	1075.962036	-15.692691	-403.563873	560.556152	169.306641	-399.622192	434.894043	109.255157	-517.428589	285.769318	123.426979	-616.946472	119.332817	34.231617	-656.206055	127.480690	-22.089525	-503.586700	37.019291	21.549114	-180.641037	604.536377	-180.732895	-200.868652	475.678162	-118.396553	-207.625916	259.914062	-153.164658	-248.212173	65.691917	-80.952232	-297.954712	50.948315	-30.980478	-112.414970	40.312222	-59.529125
75	0.74000000	-410.071686	1346.834473	135.266006	-390.583130	1368.852783	-185.011581	-478.887482	1389.679077	-22.604877	-324.348053	1307.228882	-12.525352	-371.656891	1009.546265	249.466263	-402.652985	1045.102173	-302.613037	-268.857620	823.011108	280.478607	-291.356766	852.712616	-261.008362	-301.295013	959.550110	151.254456	-259.921234	960.436646	-142.565521	-504.794037	937.158691	35.160339	-474.646271	932.087097	-106.870308	-489.720154	934.622894	-35.854984	-510.707153	1105.137817	-43.936440	-250.444611	1076.653076	-17.395931	-395.078247	560.721558	170.293381	-389.300293	434.699402	111.589676	-509.689270	287.775208	125.112129	-612.396179	123.778778	35.399414	-651.107971	133.670425	-20.959274	-502.692596	36.722553	21.337990	-180.056320	603.285461	-182.277344	-198.851868	475.323639	-118.505974	-207.307922	259.659058	-153.427917	-247.661285	65.743134	-80.753342	-297.743256	50.967991	-30.796370	-112.182899	40.130291	-59.237850
76	0.75000000	-404.958130	1347.338745	134.303314	-386.155762	1369.188721	-186.084152	-474.033875	1389.919067	-23.488735	-319.350220	1307.782715	-13.692919	-369.351685	1009.889343	248.871902	-397.739899	1044.887207	-302.849152	-268.434158	822.303802	280.953766	-285.233170	853.264221	-260.207970	-295.958344	959.450073	149.520477	-254.478683	961.195374	-144.412766	-498.857269	937.201050	34.603287	-468.654297	932.317017	-107.700150	-483.755783	934.759033	-36.548431	-505.354919	1105.261963	-44.536037	-244.897018	1077.335449	-19.177458	-385.871246	560.660339	171.473022	-378.159637	434.358521	114.069870	-501.244812	289.790710	126.899818	-607.202454	128.430847	36.583466	-645.207031	140.234573	-19.809662	-501.737518	36.460155	21.067017	-180.185959	601.773071	-183.899475	-196.591049	475.044312	-118.329323	-206.629227	259.449890	-153.446533	-247.154236	65.775970	-80.544106	-297.575134	51.025421	-30.614727	-111.940681	39.941879	-58.869873
77	0.76000000	-399.792236	1347.777222	133.352661	-381.747467	1369.475952	-187.120728	-469.235474	1390.111450	-24.304089	-314.371796	1308.262207	-14.846793	-366.985992	1010.205566	248.235199	-392.907928	1044.625977	-303.097351	-268.026154	821.559387	281.277588	-279.111664	853.829254	-259.381332	-290.921814	959.087097	147.562225	-248.972061	961.881653	-146.018799	-492.966797	937.173401	34.045506	-462.706635	932.566467	-108.575684	-477.836716	934.869934	-37.265089	-500.068298	1105.360352	-45.132412	-239.442474	1077.999634	-20.985065	-375.893280	560.396606	172.865768	-366.226318	433.891022	116.679596	-492.062439	291.795441	128.823578	-601.330200	133.273026	37.837860	-638.483093	147.146698	-18.559181	-500.692413	36.282425	20.764553	-180.540894	600.141724	-185.414398	-194.076782	474.802338	-117.916817	-205.417542	259.252258	-153.166595	-246.693680	65.785431	-80.321136	-297.439514	51.109653	-30.442770	-111.692802	39.750587	-58.441444
78	0.77000000	-394.606720	1348.142700	132.419052	-377.356934	1369.704102	-188.117828	-464.498871	1390.261108	-25.051039	-309.416718	1308.661255	-15.977045	-364.559418	1010.488342	247.546768	-388.113495	1044.347900	-303.358887	-267.640373	820.785431	281.466339	-273.006256	854.400757	-258.542023	-286.193634	958.480042	145.386215	-243.420166	962.475830	-147.355865	-487.142151	937.060852	33.468315	-456.857178	932.830811	-109.484978	-471.999664	934.945831	-38.008331	-494.843201	1105.425781	-45.728447	-234.092224	1078.629639	-22.762566	-365.108917	559.981445	174.478043	-353.565155	433.337128	119.384888	-482.129913	293.768677	130.904800	-594.763000	138.290726	39.215954	-630.942383	154.361786	-17.132868	-499.504456	36.257870	20.475525	-180.615494	598.559753	-186.665314	-191.348114	474.568146	-117.352470	-203.639053	259.020508	-152.602905	-246.278381	65.772346	-80.095863	-297.328583	51.208321	-30.289263	-111.448608	39.563145	-57.979622
79	0.78000000	-389.439545	1348.434937	131.510666	-372.978577	1369.865967	-189.073257	-459.821991	1390.376587	-25.734499	-304.489197	1308.977417	-17.073204	-362.090088	1010.716736	246.799210	-383.320648	1044.074097	-303.642548	-267.284782	819.984924	281.534119	-266.943504	854.965820	-257.696861	-281.756012	957.665466	143.019363	-237.849686	962.955139	-148.417130	-481.416016	936.860657	32.850132	-451.157288	933.112305	-110.423523	-466.286652	934.986481	-38.786695	-489.668518	1105.451660	-46.334663	-228.847794	1079.204590	-24.455765	-353.504456	559.487549	176.297256	-340.272400	432.753998	122.135757	-471.461578	295.701965	133.146942	-587.500732	143.471893	40.757748	-622.614868	161.817123	-15.482051	-498.086121	36.476833	20.261135	-179.966125	597.183777	-187.555771	-188.470444	474.329132	-116.738007	-201.388428	258.713043	-151.830887	-245.913773	65.739578	-79.885857	-297.238190	51.310822	-30.161856	-111.219009	39.387924	-57.519291
80	0.79000000	-384.323212	1348.660034	130.635712	-368.603149	1369.959961	-189.983765	-455.192444	1390.465576	-26.364950	-299.593597	1309.212158	-18.125565	-359.611725	1010.860962	245.987701	-378.506409	1043.813354	-303.960297	-266.953056	819.152313	281.485962	-260.951950	855.510681	-256.849762	-277.547760	956.691223	140.527756	-232.292664	963.297058	-149.215179	-475.831909	936.584778	32.172977	-445.651550	933.421265	-111.390251	-460.741730	935.003021	-39.608637	-484.539001	1105.437378	-46.957058	-223.704498	1079.701782	-26.019653	-341.101807	559.001221	178.289810	-326.466492	432.210999	124.871635	-460.105499	297.606842	135.531982	-579.557007	148.808823	42.481602	-613.560364	169.429474	-13.593685	-496.301239	37.049347	20.199472	-178.291168	596.122070	-188.059479	-185.514252	474.086182	-116.174324	-198.837616	258.308502	-150.965286	-245.605759	65.695854	-79.706512	-297.167816	51.409859	-30.064337	-111.013680	39.233086	-57.097221
81	0.80000000	-379.278931	1348.827393	129.800781	-364.218079	1369.991821	-190.844070	-450.587402	1390.530640	-26.959036	-294.734161	1309.371704	-19.123962	-357.165405	1010.892883	245.108582	-373.663879	1043.566650	-304.316498	-266.619316	818.274048	281.315750	-255.057274	856.022247	-256.005714	-273.454529	955.619690	138.020279	-226.784439	963.485840	-149.778351	-470.436615	936.258667	31.427616	-440.375305	933.773132	-112.380264	-455.405960	935.015900	-40.476324	-479.469421	1105.395996	-47.584541	-218.656143	1080.100708	-27.423029	-327.976227	558.614502	180.401169	-312.278564	431.783447	127.529091	-448.145172	299.516174	138.020798	-570.955017	154.296509	44.380791	-603.870667	177.089706	-11.491245	-493.953705	38.091354	20.387934	-175.485260	595.412598	-188.210251	-182.540268	473.843353	-115.745445	-196.181290	257.807526	-150.131927	-245.354218	65.658203	-79.570724	-297.119232	51.501862	-29.995140	-110.840324	39.105022	-56.744465
82	0.81000000	-374.313446	1348.945801	129.010880	-359.806824	1369.972900	-191.649231	-445.977325	1390.568970	-27.536886	-289.913605	1309.466553	-20.057638	-354.789154	1010.793457	244.157318	-368.800293	1043.333740	-304.701599	-266.253532	817.334564	281.011307	-249.279526	856.491119	-255.174332	-269.328430	954.526489	135.629791	-221.362305	963.516846	-150.144592	-465.270782	935.916321	30.615652	-435.351135	934.178894	-113.380241	-450.310959	935.047607	-41.382295	-474.487946	1105.350220	-48.194199	-213.698837	1080.386108	-28.648306	-314.272736	558.417236	182.558777	-297.843658	431.544617	130.050629	-435.694977	301.479095	140.556839	-561.725098	159.915787	46.423424	-593.652710	184.658340	-9.232476	-490.783478	39.699738	20.943037	-171.636581	595.026550	-188.083252	-179.592697	473.598663	-115.507919	-193.598175	257.225800	-149.440659	-245.152939	65.645882	-79.489021	-297.094147	51.587589	-29.948839	-110.704514	39.007263	-56.480618
